<svg width="342" height="83" viewBox="0 0 342 83" fill="none" xmlns="http://www.w3.org/2000/svg">
<path d="M3.69336 81C2.8867 81 2.2267 80.7433 1.71336 80.23C1.20003 79.7167 0.943362 79.0567 0.943362 78.25V6.75C0.943362 5.94333 1.20003 5.28333 1.71336 4.77C2.2267 4.25666 2.8867 3.99999 3.69336 3.99999H37.2434C43.55 3.99999 48.72 4.87999 52.7534 6.63999C56.7867 8.4 59.7567 10.93 61.6634 14.23C63.6434 17.4567 64.6334 21.3067 64.6334 25.78C64.6334 28.42 64.12 30.7667 63.0934 32.82C62.14 34.8 60.93 36.45 59.4634 37.77C58.07 39.09 56.75 40.0433 55.5034 40.63C58.29 41.95 60.7467 44.1133 62.8734 47.12C65.0734 50.1267 66.1734 53.6467 66.1734 57.68C66.1734 62.52 65.0734 66.7 62.8734 70.22C60.7467 73.6667 57.5934 76.3433 53.4134 78.25C49.3067 80.0833 44.2467 81 38.2334 81H3.69336ZM20.6334 66.7H36.0334C39.1867 66.7 41.57 65.7833 43.1834 63.95C44.7967 62.1167 45.6034 60.0267 45.6034 57.68C45.6034 55.1133 44.76 52.95 43.0734 51.19C41.46 49.43 39.1134 48.55 36.0334 48.55H20.6334V66.7ZM20.6334 34.58H35.0434C38.05 34.58 40.2867 33.81 41.7534 32.27C43.2934 30.73 44.0634 28.75 44.0634 26.33C44.0634 23.9833 43.2934 22.0767 41.7534 20.61C40.2867 19.07 38.05 18.3 35.0434 18.3H20.6334V34.58ZM92.4745 82.1C88.5145 82.1 84.9579 81.3667 81.8045 79.9C78.7245 78.36 76.2679 76.3067 74.4345 73.74C72.6012 71.1733 71.6845 68.2767 71.6845 65.05C71.6845 59.8433 73.8112 55.7367 78.0645 52.73C82.3179 49.65 87.9645 47.56 95.0045 46.46L108.755 44.37V42.83C108.755 40.19 108.205 38.1733 107.105 36.78C106.005 35.3867 103.988 34.69 101.055 34.69C99.0012 34.69 97.3145 35.0933 95.9945 35.9C94.7479 36.7067 93.7579 37.8067 93.0245 39.2C92.3645 40.1533 91.4479 40.63 90.2745 40.63H77.9545C77.1479 40.63 76.5245 40.41 76.0845 39.97C75.6445 39.4567 75.4612 38.87 75.5345 38.21C75.5345 36.89 76.0112 35.3867 76.9645 33.7C77.9912 31.94 79.5312 30.2167 81.5845 28.53C83.6379 26.8433 86.2779 25.45 89.5045 24.35C92.7312 23.25 96.6179 22.7 101.165 22.7C105.931 22.7 110.001 23.25 113.375 24.35C116.748 25.45 119.461 26.99 121.515 28.97C123.641 30.95 125.218 33.2967 126.245 36.01C127.271 38.65 127.785 41.5833 127.785 44.81V78.25C127.785 79.0567 127.491 79.7167 126.905 80.23C126.391 80.7433 125.768 81 125.035 81H112.275C111.468 81 110.808 80.7433 110.295 80.23C109.781 79.7167 109.525 79.0567 109.525 78.25V74.4C108.571 75.7933 107.288 77.0767 105.675 78.25C104.061 79.4233 102.155 80.34 99.9545 81C97.8279 81.7333 95.3345 82.1 92.4745 82.1ZM97.6445 69.56C99.7712 69.56 101.678 69.12 103.365 68.24C105.125 67.2867 106.481 65.8567 107.435 63.95C108.461 61.97 108.975 59.5133 108.975 56.58V55.04L99.6245 56.69C96.1779 57.2767 93.6479 58.1933 92.0345 59.44C90.4945 60.6133 89.7245 62.0067 89.7245 63.62C89.7245 64.8667 90.0912 65.93 90.8245 66.81C91.5579 67.69 92.5112 68.3867 93.6845 68.9C94.8579 69.34 96.1779 69.56 97.6445 69.56ZM141.077 81C140.271 81 139.611 80.7433 139.097 80.23C138.584 79.7167 138.327 79.0567 138.327 78.25V26.55C138.327 25.7433 138.584 25.0833 139.097 24.57C139.611 24.0567 140.271 23.8 141.077 23.8H153.727C154.534 23.8 155.194 24.0567 155.707 24.57C156.221 25.0833 156.477 25.7433 156.477 26.55V30.73C158.384 28.4567 160.877 26.55 163.957 25.01C167.037 23.47 170.667 22.7 174.847 22.7C179.101 22.7 182.841 23.6533 186.067 25.56C189.367 27.4667 191.934 30.29 193.767 34.03C195.674 37.6967 196.627 42.2067 196.627 47.56V78.25C196.627 79.0567 196.334 79.7167 195.747 80.23C195.234 80.7433 194.611 81 193.877 81H180.017C179.284 81 178.624 80.7433 178.037 80.23C177.524 79.7167 177.267 79.0567 177.267 78.25V48.22C177.267 44.7733 176.424 42.1333 174.737 40.3C173.124 38.3933 170.704 37.44 167.477 37.44C164.471 37.44 162.051 38.3933 160.217 40.3C158.457 42.1333 157.577 44.7733 157.577 48.22V78.25C157.577 79.0567 157.284 79.7167 156.697 80.23C156.184 80.7433 155.561 81 154.827 81H141.077ZM209.784 81C208.977 81 208.317 80.7433 207.804 80.23C207.29 79.7167 207.034 79.0567 207.034 78.25V5.64999C207.034 4.84333 207.29 4.18333 207.804 3.67C208.317 3.15666 208.977 2.9 209.784 2.9H222.544C223.277 2.9 223.9 3.15666 224.414 3.67C225 4.18333 225.294 4.84333 225.294 5.64999V42.5L240.584 25.67C241.024 25.1567 241.5 24.7167 242.014 24.35C242.527 23.9833 243.26 23.8 244.214 23.8H258.954C259.614 23.8 260.164 24.0567 260.604 24.57C261.117 25.01 261.374 25.56 261.374 26.22C261.374 26.5133 261.3 26.8433 261.154 27.21C261.007 27.5767 260.787 27.87 260.494 28.09L240.694 49.43L263.244 76.82C263.83 77.4067 264.124 77.9933 264.124 78.58C264.124 79.24 263.867 79.8267 263.354 80.34C262.914 80.78 262.327 81 261.594 81H246.524C245.424 81 244.617 80.8167 244.104 80.45C243.59 80.01 243.114 79.57 242.674 79.13L225.294 58.23V78.25C225.294 79.0567 225 79.7167 224.414 80.23C223.9 80.7433 223.277 81 222.544 81H209.784ZM272.152 81C271.345 81 270.685 80.7433 270.172 80.23C269.658 79.7167 269.402 79.0567 269.402 78.25V26.55C269.402 25.7433 269.658 25.0833 270.172 24.57C270.685 24.0567 271.345 23.8 272.152 23.8H285.132C285.865 23.8 286.488 24.0567 287.002 24.57C287.588 25.0833 287.882 25.7433 287.882 26.55V78.25C287.882 79.0567 287.588 79.7167 287.002 80.23C286.488 80.7433 285.865 81 285.132 81H272.152ZM272.042 15.55C271.235 15.55 270.575 15.2933 270.062 14.78C269.548 14.2667 269.292 13.6067 269.292 12.8V3.00999C269.292 2.20333 269.548 1.54333 270.062 1.02999C270.575 0.44333 271.235 0.149998 272.042 0.149998H285.132C285.938 0.149998 286.598 0.44333 287.112 1.02999C287.698 1.54333 287.992 2.20333 287.992 3.00999V12.8C287.992 13.6067 287.698 14.2667 287.112 14.78C286.598 15.2933 285.938 15.55 285.132 15.55H272.042ZM328.159 81C323.466 81 319.396 80.2667 315.949 78.8C312.576 77.26 309.972 74.9133 308.139 71.76C306.306 68.5333 305.389 64.39 305.389 59.33V38.21H296.809C296.002 38.21 295.306 37.9533 294.719 37.44C294.206 36.9267 293.949 36.2667 293.949 35.46V26.55C293.949 25.7433 294.206 25.0833 294.719 24.57C295.306 24.0567 296.002 23.8 296.809 23.8H305.389V5.64999C305.389 4.84333 305.646 4.18333 306.159 3.67C306.746 3.15666 307.406 2.9 308.139 2.9H320.899C321.706 2.9 322.366 3.15666 322.879 3.67C323.392 4.18333 323.649 4.84333 323.649 5.64999V23.8H337.399C338.206 23.8 338.866 24.0567 339.379 24.57C339.892 25.0833 340.149 25.7433 340.149 26.55V35.46C340.149 36.2667 339.892 36.9267 339.379 37.44C338.866 37.9533 338.206 38.21 337.399 38.21H323.649V57.79C323.649 60.2833 324.126 62.2633 325.079 63.73C326.032 65.1967 327.646 65.93 329.919 65.93H338.389C339.196 65.93 339.856 66.1867 340.369 66.7C340.882 67.2133 341.139 67.8733 341.139 68.68V78.25C341.139 79.0567 340.882 79.7167 340.369 80.23C339.856 80.7433 339.196 81 338.389 81H328.159Z" fill="url(#paint0_linear_4_5362)"/>
<defs>
<linearGradient id="paint0_linear_4_5362" x1="241.916" y1="-43.8826" x2="216.252" y2="223.893" gradientUnits="userSpaceOnUse">
<stop stop-color="#DE068D" stop-opacity="0.03"/>
<stop offset="1" stop-color="#21213C" stop-opacity="0.03"/>
</linearGradient>
</defs>
</svg>
