<svg width="151" height="151" viewBox="0 0 151 151" fill="none" xmlns="http://www.w3.org/2000/svg">
<rect x="0.5" y="0.0783691" width="150" height="150" rx="40" fill="#E1B0CE"/>
<path d="M94.1 12.9941H56.9C25.9 12.9941 13.5 25.411 13.5 56.4532V93.7038C13.5 124.746 25.9 137.163 56.9 137.163H94.1C125.1 137.163 137.5 124.746 137.5 93.7038V56.4532C137.5 25.411 125.1 12.9941 94.1 12.9941ZM104.64 63.1051L71.78 96.0098C70.54 97.2515 68.9457 97.8723 67.2629 97.8723C65.58 97.8723 63.9857 97.2515 62.7457 96.0098L46.2714 79.5131C43.7914 77.0297 43.7914 73.0386 46.2714 70.5552C48.7514 68.0718 52.7371 68.0718 55.2171 70.5552L67.1743 82.5286L95.6057 54.0585C98.0857 51.5751 102.071 51.5751 104.551 54.0585C107.031 56.5419 107.12 60.6217 104.64 63.1051Z" fill="#9D0062"/>
</svg>
