<svg width="339" height="253" viewBox="0 0 339 253" fill="none" xmlns="http://www.w3.org/2000/svg">
<path d="M338.977 221.824H0.895508V221.993H338.977V221.824Z" fill="#EBEBEB"/>
<path d="M305.102 232.704H282.707V232.873H305.102V232.704Z" fill="#EBEBEB"/>
<path d="M224.854 234.543H218.979V234.712H224.854V234.543Z" fill="#EBEBEB"/>
<path d="M282.03 226.429H269.055V226.598H282.03V226.429Z" fill="#EBEBEB"/>
<path d="M65.5707 227.564H36.3672V227.733H65.5707V227.564Z" fill="#EBEBEB"/>
<path d="M75.8758 227.564H71.5957V227.733H75.8758V227.564Z" fill="#EBEBEB"/>
<path d="M153.134 230.418H89.791V230.587H153.134V230.418Z" fill="#EBEBEB"/>
<path d="M161.146 191.667H30.5856C29.5628 191.665 28.5825 191.258 27.8599 190.534C27.1373 189.81 26.7314 188.829 26.7314 187.806V4.27532C26.7403 3.25839 27.1501 2.28604 27.8718 1.56947C28.5934 0.852897 29.5686 0.449984 30.5856 0.448242H161.146C162.17 0.448242 163.152 0.855013 163.876 1.57907C164.6 2.30313 165.007 3.28516 165.007 4.30913V187.806C165.007 188.83 164.6 189.812 163.876 190.536C163.152 191.26 162.17 191.667 161.146 191.667ZM30.5856 0.583475C29.6076 0.585266 28.6703 0.975017 27.9794 1.66718C27.2885 2.35934 26.9005 3.29735 26.9005 4.27532V187.806C26.9005 188.784 27.2885 189.722 27.9794 190.414C28.6703 191.106 29.6076 191.496 30.5856 191.498H161.146C162.124 191.496 163.062 191.107 163.754 190.415C164.446 189.723 164.836 188.785 164.838 187.806V4.27532C164.836 3.29673 164.446 2.35873 163.754 1.66677C163.062 0.974797 162.124 0.585263 161.146 0.583475H30.5856Z" fill="#EBEBEB"/>
<path d="M307.406 191.667H176.839C175.816 191.665 174.835 191.258 174.111 190.534C173.388 189.811 172.98 188.83 172.979 187.806V4.27532C172.989 3.25777 173.4 2.28543 174.123 1.56904C174.846 0.852661 175.822 0.449965 176.839 0.448242H307.406C308.422 0.451761 309.396 0.85546 310.116 1.57184C310.836 2.28822 311.245 3.25956 311.254 4.27532V187.806C311.254 188.828 310.849 189.808 310.128 190.531C309.407 191.255 308.428 191.663 307.406 191.667ZM176.839 0.583475C175.861 0.585263 174.923 0.974797 174.231 1.66677C173.539 2.35873 173.149 3.29673 173.148 4.27532V187.806C173.149 188.785 173.539 189.723 174.231 190.415C174.923 191.107 175.861 191.496 176.839 191.498H307.406C308.385 191.496 309.323 191.107 310.015 190.415C310.707 189.723 311.096 188.785 311.098 187.806V4.27532C311.096 3.29673 310.707 2.35873 310.015 1.66677C309.323 0.974797 308.385 0.585263 307.406 0.583475H176.839Z" fill="#EBEBEB"/>
<path d="M253.212 51.1673H243.631V80.9928H253.212V51.1673Z" fill="#E6E6E6"/>
<path d="M279.184 80.9926H247.391L242.59 46.0823H274.383L279.184 80.9926Z" fill="#F0F0F0"/>
<path d="M282.625 80.9926H249.791L244.99 46.0823H277.825L282.625 80.9926Z" fill="#F5F5F5"/>
<path d="M252.165 78.2403L248.121 48.834H275.452L279.502 78.2403H252.165Z" fill="white"/>
<path d="M257.567 69.3358L256.045 58.3008C256 58.0095 256.019 57.712 256.101 57.4287C256.182 57.1455 256.324 56.8834 256.517 56.6608C256.71 56.4381 256.95 56.2601 257.219 56.1393C257.487 56.0185 257.779 55.9578 258.074 55.9613H268.007C268.504 55.9575 268.986 56.1365 269.359 56.4644C269.733 56.7922 269.974 57.246 270.035 57.7396L271.55 68.7813C271.594 69.072 271.574 69.3689 271.492 69.6513C271.41 69.9337 271.268 70.1949 271.075 70.4168C270.882 70.6387 270.643 70.8159 270.375 70.9364C270.107 71.0568 269.815 71.1174 269.521 71.1141H259.602C259.104 71.1195 258.621 70.9412 258.245 70.6132C257.87 70.2852 257.628 69.8305 257.567 69.3358Z" fill="#F5F5F5"/>
<path d="M193.568 18.4881H50.3633V106.829H193.568V18.4881Z" fill="#E6E6E6"/>
<path d="M197.246 18.4881H52.0811V106.829H197.246V18.4881Z" fill="#F0F0F0"/>
<path d="M193.568 106.836H50.3633V113.672H193.568V106.836Z" fill="#E6E6E6"/>
<path d="M203.372 106.836H58.207V113.672H203.372V106.836Z" fill="#F0F0F0"/>
<path d="M192.094 101.684V23.6409L57.2331 23.6409V101.684L192.094 101.684Z" fill="#FAFAFA"/>
<path d="M67.1328 101.684L97.364 23.6409H111.631L81.3998 101.684H67.1328Z" fill="white"/>
<path d="M84.4688 101.684L114.7 23.6409H120.258L90.0268 101.684H84.4688Z" fill="white"/>
<path d="M137.358 101.684L167.59 23.6409H173.148L142.923 101.684H137.358Z" fill="white"/>
<path d="M192.087 101.684V23.6409H191.431V101.684H192.087Z" fill="#E6E6E6"/>
<path d="M302.126 80.9926H271.807V221.824H302.126V80.9926Z" fill="#E6E6E6"/>
<path d="M299.076 221.824H302.126V213.149H295.878L299.076 221.824Z" fill="#F0F0F0"/>
<path d="M249 80.9926H218.681V221.824H249V80.9926Z" fill="#E6E6E6"/>
<path d="M302.126 80.9926H246.336V216.502H302.126V80.9926Z" fill="#F0F0F0"/>
<path d="M249.385 221.824H246.336V213.149H252.584L249.385 221.824Z" fill="#F0F0F0"/>
<path d="M299.759 83.4742H248.702V147.399H299.759V83.4742Z" fill="#E6E6E6"/>
<path d="M279.758 88.451H268.703C266.326 88.4508 263.975 87.9662 261.791 87.0269C259.608 86.0876 257.639 84.7132 256.005 82.9876H292.457C290.823 84.7141 288.854 86.0892 286.671 87.0286C284.488 87.968 282.135 88.452 279.758 88.451Z" fill="#F0F0F0"/>
<path d="M299.759 149.989H248.702V213.913H299.759V149.989Z" fill="#E6E6E6"/>
<path d="M279.758 154.965H268.703C266.326 154.965 263.975 154.48 261.791 153.541C259.608 152.601 257.639 151.227 256.005 149.502H292.457C290.823 151.228 288.854 152.603 286.671 153.542C284.488 154.482 282.135 154.966 279.758 154.965Z" fill="#F0F0F0"/>
<path d="M88.459 125.464H138.914L146.23 155.262H95.7683L88.459 125.464Z" fill="#E6E6E6"/>
<path d="M95.7676 155.263L95.9772 156.906H146.432L146.23 155.263H95.7676Z" fill="#E6E6E6"/>
<path d="M90.0137 125.464H140.469L147.785 155.262H97.323L90.0137 125.464Z" fill="#F0F0F0"/>
<path d="M98.3918 153.897L91.7451 126.823H139.401L146.048 153.897H98.3918Z" fill="white"/>
<path d="M110.475 155.263L110.677 156.906H166.238L166.035 155.263H110.475Z" fill="#F0F0F0"/>
<path d="M178.916 156.906H172.871V221.818H178.916V156.906Z" fill="#E6E6E6"/>
<path d="M180.829 156.906H176.63V221.818H180.829V156.906Z" fill="#F0F0F0"/>
<path d="M104.233 164.337H182.134V156.906H104.233V164.337Z" fill="#F0F0F0"/>
<path d="M101.522 164.337H95.4775V221.818H101.522V164.337Z" fill="#E6E6E6"/>
<path d="M103.428 164.337H99.2295V221.818H103.428V164.337Z" fill="#F0F0F0"/>
<path d="M63.2578 164.337H57.2129V221.818H63.2578V164.337Z" fill="#E6E6E6"/>
<path d="M65.1716 164.337H60.9727V221.818H65.1716V164.337Z" fill="#F0F0F0"/>
<path d="M140.658 164.337H134.613V221.818H140.658V164.337Z" fill="#E6E6E6"/>
<path d="M142.565 164.337H138.366V221.818H142.565V164.337Z" fill="#F0F0F0"/>
<path d="M104.226 156.906H57.2129V164.337H104.226V156.906Z" fill="#E6E6E6"/>
<path d="M198.565 221.823H197.098L192.926 201.106L192.189 197.475L187.564 174.898H169.984L160.47 221.823H158.982L168.692 174.032C168.723 173.874 168.806 173.731 168.929 173.626C169.052 173.522 169.207 173.462 169.368 173.458H188.193C188.356 173.456 188.514 173.513 188.638 173.618C188.762 173.724 188.844 173.871 188.869 174.032L192.926 193.857L193.602 197.482L198.565 221.823Z" fill="#F0F0F0"/>
<path d="M226.795 221.824H225.321L215.787 174.898H198.207L193.602 197.482L192.926 201.106L188.713 221.824H187.246L192.189 197.482L192.919 193.865L196.976 174.039C197.008 173.882 197.092 173.739 197.214 173.635C197.337 173.531 197.491 173.471 197.652 173.465H216.416C216.577 173.469 216.732 173.529 216.855 173.633C216.978 173.738 217.061 173.881 217.092 174.039L226.795 221.824Z" fill="#F0F0F0"/>
<path d="M183.459 174.175H215.766C221.933 174.175 225.354 169.982 227.099 163.072L227.95 159.123C228.238 157.929 228.251 156.685 227.988 155.485C227.724 154.285 227.192 153.16 226.431 152.196C225.67 151.232 224.7 150.453 223.594 149.918C222.488 149.383 221.275 149.107 220.046 149.109H199.761C195.569 149.109 194.46 150.11 191.559 156.425C188.659 162.741 183.459 174.175 183.459 174.175Z" fill="#F0F0F0"/>
<path d="M201.073 174.175H166.643C166.214 174.175 165.803 174.004 165.5 173.701C165.197 173.398 165.027 172.987 165.027 172.559V172.41C165.027 171.829 165.141 171.254 165.364 170.718C165.586 170.181 165.912 169.694 166.322 169.283C166.733 168.872 167.22 168.547 167.757 168.324C168.293 168.102 168.868 167.988 169.449 167.988H201.073V174.181V174.175Z" fill="#F0F0F0"/>
<path d="M169.936 252.36C242.341 252.36 301.037 248.933 301.037 244.706C301.037 240.478 242.341 237.051 169.936 237.051C97.531 237.051 38.835 240.478 38.835 244.706C38.835 248.933 97.531 252.36 169.936 252.36Z" fill="#F5F5F5"/>
<path d="M138.177 223.075L133.849 225.861L126.006 216.739L130.333 213.953L138.177 223.075Z" fill="#FF8B7B"/>
<path opacity="0.2" d="M130.34 213.953L126.006 216.739L130.056 221.445L134.384 218.653L130.34 213.953Z" fill="black"/>
<path d="M105.105 237.951L100.129 238.438L94.9561 226.605L99.9326 226.118L105.105 237.951Z" fill="#FF8B7B"/>
<path opacity="0.2" d="M94.9629 226.611L97.627 232.71H102.813L99.9327 226.125L94.9629 226.611Z" fill="black"/>
<path d="M67.3145 78.2071C64.8127 78.4302 64.7451 74.1839 60.35 76.1786C54.7649 78.721 56.6514 82.663 52.2902 82.5007C47.9289 82.3384 45.0079 85.7395 45.9816 88.2751C46.9552 90.8107 48.4631 93.2111 45.3798 94.2321C42.2965 95.2531 40.2004 96.1524 40.6466 98.7083C41.0929 101.264 43.2769 102.292 39.5986 103.922C35.9203 105.551 36.2922 112.597 39.8961 112.603C43.5001 112.61 40.0449 116.12 43.2769 119.69C46.509 123.26 51.4247 123.747 53.4735 121.989C55.5222 120.231 57.8077 118.777 61.6618 121.481C65.5159 124.186 72.0409 124.862 71.7434 120.575C71.4459 116.289 67.6864 113.476 71.2295 111.244C74.7726 109.013 79.3434 107.911 77.91 103.57C76.9972 100.865 74.2384 98.5122 76.463 96.4905C80.0805 93.2044 80.1007 85.7666 75.6651 83.8801C73.0889 82.7915 75.5704 77.4633 67.3145 78.2071Z" fill="#263238"/>
<path d="M62.5005 111.623C62.3787 113.652 62.1218 115.457 61.8243 117.357C61.5268 119.257 61.094 121.11 60.6004 122.969C60.1193 124.849 59.507 126.693 58.768 128.487C58.4029 129.393 57.9837 130.292 57.5374 131.191C57.3143 131.638 57.0709 132.077 56.8207 132.51C56.7057 132.733 56.5638 132.949 56.4353 133.186L56.2392 133.504C56.106 133.716 55.9569 133.917 55.7929 134.106C55.4179 134.529 54.9569 134.868 54.4406 135.1C53.9794 135.309 53.485 135.434 52.9801 135.472C52.2375 135.514 51.4936 135.413 50.7893 135.174C49.7404 134.814 48.7409 134.323 47.8142 133.714C46.1822 132.646 44.6379 131.45 43.196 130.137C40.4162 127.608 37.8242 124.88 35.4404 121.975L37.3607 120.129C38.7131 121.319 40.0654 122.53 41.4786 123.679C42.8917 124.829 44.2711 125.985 45.7113 127.06C47.0825 128.115 48.5288 129.069 50.0388 129.914C50.6771 130.275 51.3587 130.555 52.0673 130.745C52.2378 130.798 52.4175 130.814 52.5947 130.793H52.4594C52.3701 130.836 52.288 130.893 52.216 130.962L52.1822 130.995C52.1822 130.995 52.1822 131.043 52.1822 130.995L52.331 130.718C52.4256 130.536 52.5338 130.36 52.6217 130.17C52.811 129.796 52.9936 129.418 53.1694 129.034C53.5075 128.264 53.8456 127.479 54.116 126.661C54.684 125.038 55.1573 123.361 55.5766 121.658C55.9958 119.954 56.3136 118.216 56.5976 116.465C56.8815 114.713 57.0979 112.922 57.2737 111.258L62.5005 111.623Z" fill="#FF8B7B"/>
<path d="M66.4291 112.259C66.1587 113.895 64.7996 116.992 63.7245 119.291C62.9266 120.954 62.2775 122.205 62.2775 122.205L61.3309 121.786L53.4941 118.297C54.0892 114.071 55.0561 109.507 59.7148 107.431C62.6223 106.147 66.9092 109.311 66.4291 112.259Z" fill="#7E004E"/>
<path opacity="0.6" d="M66.4291 112.259C66.1587 113.895 64.7996 116.992 63.7245 119.291C62.9266 120.954 62.2775 122.205 62.2775 122.205L61.3309 121.786L53.4941 118.297C54.0892 114.071 55.0561 109.507 59.7148 107.431C62.6223 106.147 66.9092 109.311 66.4291 112.259Z" fill="black"/>
<path opacity="0.3" d="M63.7042 119.291C62.9063 120.955 62.2572 122.206 62.2572 122.206L61.3105 121.786C61.439 120.116 61.7703 117.486 62.6629 116.303C63.2204 117.213 63.5755 118.232 63.7042 119.291Z" fill="black"/>
<path d="M37.6578 121.678L38.2798 117.128L33.1748 118.777C33.1748 118.777 33.9862 121.529 35.8051 122.659L37.6578 121.678Z" fill="#FF8B7B"/>
<path d="M35.9677 113.239L32.4043 115.193L33.1751 118.804L38.2802 117.127L35.9677 113.239Z" fill="#FF8B7B"/>
<path d="M132.253 224.495L136.952 221.114C137.033 221.055 137.132 221.027 137.232 221.036C137.331 221.045 137.424 221.089 137.493 221.161L140.691 224.495C140.769 224.581 140.828 224.683 140.863 224.794C140.899 224.905 140.911 225.022 140.898 225.137C140.885 225.253 140.848 225.364 140.789 225.464C140.73 225.565 140.651 225.651 140.556 225.719C138.899 226.868 138.041 227.335 135.972 228.816C134.701 229.728 132.023 231.933 130.265 233.19C128.507 234.448 127.175 232.785 127.79 232.102C130.562 229.045 131.299 226.963 131.739 225.245C131.818 224.943 132 224.678 132.253 224.495Z" fill="#263238"/>
<path d="M99.4724 236.902H105.558C105.667 236.904 105.773 236.942 105.86 237.009C105.946 237.076 106.009 237.169 106.038 237.274L107.39 242.102C107.423 242.216 107.429 242.336 107.407 242.453C107.385 242.57 107.335 242.679 107.263 242.774C107.191 242.868 107.097 242.943 106.99 242.995C106.883 243.046 106.765 243.072 106.647 243.069C104.496 243.069 103.475 243.069 100.791 243.069H92.5823C90.351 243.069 89.8777 240.811 90.804 240.608C94.9421 239.695 97.329 238.431 98.6069 237.227C98.8438 237.013 99.1532 236.897 99.4724 236.902Z" fill="#263238"/>
<path d="M90.1826 130.583L70.256 136.884C56.4623 109.581 58.43 108.134 58.43 108.134C58.43 108.134 61.6147 106.315 64.9279 104.801C65.4282 104.571 65.9354 104.347 66.4357 104.124C69.3793 102.955 72.4027 101.996 75.4828 101.257C75.9358 101.136 76.3888 101.028 76.8351 100.919C79.288 100.365 81.7716 99.9559 84.2729 99.6955C84.5704 103.475 84.8679 106.673 85.1925 109.453C85.6117 113.077 86.0647 115.977 86.5448 118.486C87.4322 122.609 88.6487 126.654 90.1826 130.583Z" fill="#7E004E"/>
<path opacity="0.6" d="M90.1826 130.583L70.256 136.884C56.4623 109.581 58.43 108.134 58.43 108.134C58.43 108.134 61.6147 106.315 64.9279 104.801C65.4282 104.571 65.9354 104.347 66.4357 104.124C69.3793 102.955 72.4027 101.996 75.4828 101.257C75.9358 101.136 76.3888 101.028 76.8351 100.919C79.288 100.365 81.7716 99.9559 84.2729 99.6955C84.5704 103.475 84.8679 106.673 85.1925 109.453C85.6117 113.077 86.0647 115.977 86.5448 118.486C87.4322 122.609 88.6487 126.654 90.1826 130.583Z" fill="black"/>
<path opacity="0.3" d="M86.5991 118.5C84.6855 115.795 82.8531 109.5 83.3265 107.14L85.2197 109.466C85.6389 113.091 86.092 115.991 86.5991 118.5Z" fill="black"/>
<path d="M70.9658 113.232C70.9658 113.232 75.9897 112.144 77.6057 114.328C79.8236 112.144 79.0392 103.61 77.9709 100.568C77.1236 100.712 76.2925 100.938 75.4894 101.244L71.9395 106.734L70.9658 113.232Z" fill="white"/>
<path d="M70.9657 113.232C70.9657 113.232 67.5849 113.989 67.2265 116.755C62.4934 113.232 62.8247 108.073 63.8931 105.03C64.7041 104.638 65.557 104.338 66.4354 104.138L69.9853 108.046L70.9657 113.232Z" fill="white"/>
<path d="M72.1216 95.5104C72.7978 97.9986 73.8256 100.46 75.5024 101.271C75.5024 101.271 77.0644 105.747 70.9789 113.233C64.6095 108.696 66.4486 104.138 66.4486 104.138C69.4508 102.333 68.6056 99.9528 67.3276 97.8702L69.0924 95.037C69.2682 94.7641 69.5195 94.5481 69.8157 94.4152C70.1119 94.2824 70.4402 94.2383 70.761 94.2884C71.0817 94.3385 71.381 94.4807 71.6225 94.6976C71.8641 94.9145 72.0375 95.1968 72.1216 95.5104Z" fill="#FF8B7B"/>
<path opacity="0.2" d="M72.1224 95.5103C72.0415 95.1915 71.8687 94.9035 71.6254 94.6821C71.3821 94.4608 71.0791 94.3158 70.7541 94.2654C70.4291 94.2149 70.0964 94.2612 69.7975 94.3984C69.4985 94.5356 69.2465 94.7577 69.0729 95.037L68.5049 95.943C68.5522 96.5448 68.5793 97.0384 68.5725 97.2954C68.5184 99.0534 70.9864 98.9722 72.9946 98.127C72.6366 97.2787 72.345 96.4038 72.1224 95.5103Z" fill="black"/>
<path d="M59.8906 88.7149C61.6486 93.5089 62.2842 95.5779 65.5027 97.3495C70.3373 100.02 75.8413 96.8153 75.5573 91.5886C75.3003 86.8892 72.474 79.8301 67.112 79.3095C65.9301 79.1898 64.7373 79.3741 63.6466 79.845C62.556 80.3158 61.6038 81.0575 60.8803 81.9998C60.1569 82.942 59.6862 84.0535 59.513 85.2287C59.3398 86.404 59.4698 87.604 59.8906 88.7149Z" fill="#FF8B7B"/>
<path d="M72.3249 81.5068C70.675 79.9178 68.9441 78.0719 65.6309 78.4302C61.9661 78.8292 60.5191 81.047 60.5191 81.047L57.3682 87.9371C57.3682 87.9371 59.3223 96.8083 62.5476 92.6702C64.407 90.2766 64.4544 86.6591 63.7782 83.9545C65.0453 83.7758 66.2942 83.4862 67.5106 83.089C68.9982 83.6435 70.6683 83.6435 71.9057 82.5075C72.1761 82.2573 72.3722 82.0612 72.5142 81.9057L72.6292 81.7773C72.9943 81.3107 72.69 81.358 72.3249 81.5068ZM68.0651 82.9403C69.2201 82.5667 70.3937 82.253 71.5811 82.0004C71.1396 82.4674 70.5771 82.8025 69.9562 82.9685C69.3354 83.1344 68.6807 83.1247 68.0651 82.9403Z" fill="#263238"/>
<path d="M60.1338 93.5894C60.6415 94.4403 61.4657 95.0555 62.426 95.3001C63.6971 95.6179 64.2989 94.4751 63.9135 93.2716C63.5687 92.21 62.4936 90.763 61.2089 90.9659C60.9311 91.0167 60.6706 91.1365 60.4513 91.3144C60.232 91.4922 60.0609 91.7223 59.9539 91.9836C59.8468 92.2449 59.8072 92.5289 59.8386 92.8095C59.87 93.0901 59.9715 93.3583 60.1338 93.5894Z" fill="#FF8B7B"/>
<path d="M70.2562 136.891C70.2562 136.891 69.58 177.724 74.9149 192.478C80.0538 206.623 95.3824 230.938 95.3824 230.938L104.267 230.715C104.267 230.715 90.1489 199.916 87.8432 187.745C84.0026 167.548 84.8478 132.3 84.8478 132.3L70.2562 136.891Z" fill="#7E004E"/>
<path opacity="0.3" d="M78.2344 140.414L80.6212 133.652L84.8473 132.3C84.8473 132.3 84.4618 148.345 85.3882 164.985C81.5543 157.602 78.2344 144.078 78.2344 140.414Z" fill="black"/>
<path d="M94.1314 231.399L105.105 231.121L104.47 227.747L92.4883 228.315L94.1314 231.399Z" fill="#263238"/>
<path d="M74.5967 135.573C74.5967 135.573 88.458 167.278 97.4172 185.325C104.652 199.903 127.168 219.458 127.168 219.458L133.342 215.178C133.342 215.178 116.397 192.012 111.4 182.127C95.409 150.496 99.351 137.46 90.1552 130.583L74.5967 135.573Z" fill="#7E004E"/>
<path d="M127.534 221.499L134.782 216.34L133.139 213.176L125.174 219.2L127.534 221.499Z" fill="#263238"/>
<path d="M90.1483 129.318L91.6088 130.82C91.7238 130.934 91.6088 131.131 91.3722 131.205L70.472 137.811C70.2962 137.872 70.1204 137.811 70.0731 137.723L69.3293 135.992C69.2752 135.877 69.3969 135.722 69.593 135.661L89.7764 129.271C89.8372 129.246 89.9035 129.237 89.9687 129.246C90.0339 129.254 90.0958 129.279 90.1483 129.318Z" fill="#263238"/>
<path d="M88.1202 132.435L88.6612 132.266C88.7694 132.266 88.837 132.145 88.8032 132.084L87.8227 129.846C87.7937 129.809 87.7534 129.783 87.7081 129.772C87.6628 129.761 87.6151 129.766 87.5725 129.785L87.0316 129.961C86.9234 129.994 86.8558 130.076 86.8896 130.143L87.8768 132.375C87.8971 132.442 88.0053 132.469 88.1202 132.435Z" fill="#7E004E"/>
<path d="M72.0207 137.527L72.5616 137.358C72.6698 137.324 72.7307 137.243 72.7036 137.175L71.7164 134.937C71.7164 134.869 71.5744 134.849 71.4663 134.883L70.9253 135.052C70.8239 135.086 70.7563 135.167 70.7833 135.235L71.7705 137.473C71.8011 137.507 71.8418 137.531 71.8868 137.541C71.9318 137.55 71.9787 137.546 72.0207 137.527Z" fill="#7E004E"/>
<path d="M80.0675 135.005L80.6084 134.836C80.7166 134.802 80.7842 134.721 80.7504 134.653L79.7632 132.415C79.7632 132.354 79.628 132.327 79.5198 132.361L78.9789 132.53C78.8707 132.53 78.8031 132.645 78.8369 132.713L79.8173 134.951C79.8511 135.005 79.9593 135.005 80.0675 135.005Z" fill="#7E004E"/>
<path d="M68.3016 87.6732C68.4233 88.0721 68.7276 88.3494 68.9778 88.2547C69.228 88.16 69.3497 87.7881 69.228 87.396C69.1063 87.0038 68.8088 86.7198 68.5518 86.8145C68.2949 86.9091 68.1867 87.2607 68.3016 87.6732Z" fill="#263238"/>
<path d="M72.7985 86.3207C72.9202 86.7196 73.2244 86.9969 73.4746 86.9022C73.7248 86.8076 73.8465 86.4424 73.7316 86.0435C73.6166 85.6445 73.3056 85.3673 73.0554 85.462C72.8052 85.5566 72.6835 85.9218 72.7985 86.3207Z" fill="#263238"/>
<path d="M72.9473 85.5163L73.8195 84.9551C73.8195 84.9551 73.5558 85.8476 72.9473 85.5163Z" fill="#263238"/>
<path d="M71.6758 87.3561C72.3031 88.1562 73.0355 88.8681 73.853 89.4725C73.6899 89.6763 73.4845 89.8423 73.2511 89.959C73.0176 90.0757 72.7616 90.1405 72.5007 90.1487L71.6758 87.3561Z" fill="#FF5652"/>
<path d="M71.1616 92.339C71.1803 92.324 71.1941 92.3038 71.2013 92.2809C71.2085 92.2581 71.2088 92.2336 71.2022 92.2106C71.1928 92.1801 71.1723 92.1541 71.1448 92.1379C71.1173 92.1216 71.0847 92.1162 71.0535 92.1227C70.5623 92.2831 70.0401 92.3244 69.5299 92.2433C69.0197 92.1622 68.5361 91.9609 68.1189 91.6561C68.1065 91.6455 68.0921 91.6374 68.0765 91.6323C68.0609 91.6272 68.0445 91.6252 68.0282 91.6265C68.0119 91.6277 67.996 91.6322 67.9814 91.6396C67.9668 91.647 67.9538 91.6572 67.9431 91.6696C67.9325 91.6821 67.9243 91.6965 67.9193 91.712C67.9142 91.7276 67.9122 91.744 67.9135 91.7603C67.9147 91.7767 67.9192 91.7926 67.9266 91.8072C67.934 91.8218 67.9442 91.8348 67.9566 91.8454C68.4051 92.1768 68.9262 92.3963 69.4766 92.4857C70.027 92.5751 70.5908 92.5317 71.1211 92.3593L71.1616 92.339Z" fill="#263238"/>
<path d="M66.6046 86.5715C66.6361 86.5419 66.6594 86.5046 66.6722 86.4633C66.7726 86.1747 66.9393 85.9136 67.1589 85.701C67.3785 85.4885 67.6449 85.3304 67.9366 85.2395C67.9706 85.2359 68.0035 85.2253 68.033 85.2082C68.0626 85.1911 68.0883 85.168 68.1083 85.1403C68.1284 85.1127 68.1424 85.0811 68.1495 85.0477C68.1565 85.0143 68.1565 84.9798 68.1493 84.9464C68.1422 84.913 68.1281 84.8815 68.1079 84.8539C68.0878 84.8263 68.0621 84.8032 68.0325 84.7862C68.0028 84.7692 67.97 84.7587 67.936 84.7552C67.902 84.7518 67.8677 84.7555 67.8352 84.7662C67.4593 84.8737 67.1155 85.0717 66.8338 85.3428C66.5521 85.6139 66.3411 85.9499 66.2192 86.3213C66.2073 86.3515 66.2015 86.3837 66.2022 86.4161C66.2029 86.4486 66.2101 86.4805 66.2233 86.5101C66.2366 86.5397 66.2556 86.5664 66.2792 86.5885C66.3029 86.6107 66.3308 86.6279 66.3612 86.6391C66.4042 86.648 66.4487 86.6464 66.491 86.6347C66.5334 86.6229 66.5723 86.6013 66.6046 86.5715Z" fill="#263238"/>
<path d="M74.1712 83.7715C74.169 83.7558 74.169 83.7399 74.1712 83.7242C74.1796 83.6609 74.1642 83.5968 74.1279 83.5444C74.0917 83.4919 74.0372 83.4547 73.9751 83.4402C73.5963 83.3596 73.2037 83.3703 72.8298 83.4714C72.4559 83.5725 72.1115 83.7611 71.8249 84.0217C71.7801 84.0683 71.7556 84.1308 71.7569 84.1955C71.7582 84.2602 71.7851 84.3217 71.8317 84.3665C71.8783 84.4113 71.9408 84.4358 72.0055 84.4345C72.0702 84.4333 72.1317 84.4064 72.1765 84.3598C72.4055 84.157 72.6794 84.0114 72.9756 83.935C73.2718 83.8586 73.5819 83.8535 73.8805 83.9202C73.9387 83.9344 74.0001 83.9272 74.0535 83.8999C74.1068 83.8726 74.1486 83.827 74.1712 83.7715Z" fill="#263238"/>
<path d="M87.3287 104.483C88.1333 105.084 88.8095 105.646 89.5127 106.254C90.2159 106.863 90.865 107.471 91.5412 108.107C92.8597 109.378 94.1309 110.703 95.3344 112.096C96.5514 113.497 97.6805 114.971 98.7152 116.512C98.9857 116.89 99.2224 117.303 99.4725 117.695C99.7227 118.087 99.9729 118.486 100.196 118.905C100.419 119.324 100.656 119.696 100.872 120.163L101.231 120.913L101.521 121.671C102.145 123.591 102.437 125.603 102.387 127.621C102.346 129.496 102.144 131.365 101.785 133.206C101.433 135.011 100.974 136.776 100.433 138.507C99.8873 140.241 99.2508 141.945 98.5259 143.612L96.0782 142.706C96.4974 141.083 96.8964 139.379 97.1939 137.696C97.5243 136.028 97.7658 134.345 97.9174 132.652C98.0799 131.012 98.1183 129.361 98.0323 127.716C97.9839 126.935 97.8891 126.159 97.7483 125.39C97.6 124.68 97.3942 123.983 97.133 123.307L96.9234 122.84L96.6935 122.414C96.5109 122.103 96.2608 121.738 96.0173 121.393C95.7739 121.049 95.5711 120.717 95.3412 120.372C95.1113 120.028 94.8746 119.696 94.6177 119.372C93.6305 118.019 92.5148 116.789 91.4059 115.538C90.297 114.287 89.0799 113.11 87.8425 111.961C87.234 111.38 86.6052 110.812 85.9763 110.257C85.3475 109.703 84.6713 109.148 84.0898 108.675L87.3287 104.483Z" fill="#FF8B7B"/>
<path d="M96.8558 141.09L93.1504 143.795L97.8835 146.297C97.8835 146.297 99.2967 143.795 98.8437 141.706L96.8558 141.09Z" fill="#FF8B7B"/>
<path d="M91.9814 148.183L95.8559 149.38L97.9182 146.31L93.1512 143.808L91.9814 148.183Z" fill="#FF8B7B"/>
<path d="M84.2995 99.7092C86.8892 99.5943 91.9808 105.957 91.9808 105.957L86.6932 113.435C86.6932 113.435 80.7565 108.702 80.2967 105.409C79.9113 102.603 80.9999 99.8445 84.2995 99.7092Z" fill="#7E004E"/>
<path opacity="0.6" d="M84.2995 99.7092C86.8892 99.5943 91.9808 105.957 91.9808 105.957L86.6932 113.435C86.6932 113.435 80.7565 108.702 80.2967 105.409C79.9113 102.603 80.9999 99.8445 84.2995 99.7092Z" fill="black"/>
<path d="M130.475 226.611H130.394C130.275 226.596 130.163 226.55 130.068 226.478C129.973 226.406 129.899 226.309 129.853 226.199C129.817 226.135 129.799 226.063 129.799 225.989C129.799 225.916 129.817 225.844 129.853 225.78C130.184 225.212 132.044 225.103 132.253 225.103C132.277 225.103 132.3 225.109 132.32 225.121C132.341 225.133 132.357 225.15 132.368 225.171C132.382 225.191 132.389 225.215 132.389 225.239C132.389 225.263 132.382 225.286 132.368 225.306C131.915 225.807 131.111 226.611 130.475 226.611ZM131.963 225.374C131.219 225.428 130.232 225.604 130.063 225.901C130.044 225.928 130.034 225.96 130.034 225.993C130.034 226.025 130.044 226.057 130.063 226.084C130.091 226.158 130.139 226.223 130.2 226.273C130.262 226.323 130.336 226.355 130.414 226.368C130.773 226.408 131.341 226.037 131.963 225.374Z" fill="#7E004E"/>
<path d="M132.125 225.36C131.503 225.36 130.279 225.015 130.049 224.515C130.012 224.426 130.006 224.328 130.03 224.235C130.055 224.142 130.109 224.06 130.184 224.001C130.254 223.938 130.337 223.891 130.427 223.861C130.516 223.832 130.611 223.822 130.705 223.832C131.442 223.913 132.314 225.11 132.348 225.184C132.359 225.203 132.365 225.224 132.365 225.245C132.365 225.267 132.359 225.288 132.348 225.306C132.339 225.324 132.325 225.339 132.309 225.351C132.292 225.363 132.273 225.371 132.253 225.374L132.125 225.36ZM130.624 224.075C130.523 224.075 130.426 224.113 130.353 224.184C130.238 224.285 130.252 224.366 130.272 224.42C130.421 224.745 131.381 225.096 132.01 225.096C131.699 224.711 131.117 224.102 130.657 224.055L130.624 224.075Z" fill="#7E004E"/>
<path d="M96.7612 237.91C96.3448 237.94 95.9292 237.841 95.5712 237.626C95.4783 237.558 95.4021 237.469 95.3483 237.367C95.2944 237.265 95.2643 237.153 95.2601 237.038C95.2546 236.973 95.2661 236.909 95.2934 236.851C95.3207 236.793 95.3629 236.743 95.4157 236.706C95.9701 236.334 98.0459 237.274 98.4584 237.47C98.4814 237.48 98.5005 237.498 98.5127 237.52C98.5249 237.542 98.5296 237.567 98.526 237.592C98.5238 237.618 98.5134 237.642 98.4964 237.662C98.4793 237.681 98.4566 237.695 98.4313 237.7C97.8831 237.826 97.3235 237.896 96.7612 237.91ZM95.7943 236.855C95.7098 236.851 95.6256 236.869 95.5509 236.909C95.5334 236.922 95.5198 236.94 95.5114 236.96C95.5031 236.98 95.5004 237.002 95.5036 237.024C95.5062 237.104 95.527 237.182 95.5645 237.252C95.6021 237.322 95.6552 237.383 95.7199 237.43C96.0783 237.7 96.9235 237.741 98.0121 237.538C97.3131 237.196 96.5648 236.965 95.7943 236.855Z" fill="#7E004E"/>
<path d="M98.4046 237.7H98.364C97.6878 237.416 96.2814 236.3 96.3355 235.726C96.3355 235.604 96.4369 235.442 96.748 235.408C97.9651 235.259 98.4789 237.436 98.4992 237.558C98.5037 237.58 98.5023 237.603 98.4952 237.624C98.4881 237.646 98.4755 237.665 98.4587 237.68C98.4428 237.691 98.4241 237.698 98.4046 237.7ZM96.9102 235.638H96.8291C96.7006 235.638 96.633 235.692 96.6195 235.753C96.5789 236.084 97.5391 236.97 98.2423 237.355C98.0597 236.821 97.6202 235.638 96.9102 235.638Z" fill="#7E004E"/>
<path d="M68.4502 86.8552L69.3224 86.2939C69.3224 86.2939 69.0587 87.1865 68.4502 86.8552Z" fill="#263238"/>
<path d="M196.056 37.4137H97.7892C96.7393 37.4065 95.6991 37.6145 94.7327 38.0248C93.7663 38.435 92.8941 39.0389 92.17 39.7991C91.4459 40.5593 90.8851 41.4598 90.5224 42.445C90.1596 43.4303 90.0025 44.4794 90.0606 45.5276L99.2767 236.591C99.408 238.768 100.358 240.814 101.936 242.319C103.514 243.824 105.603 244.676 107.783 244.705H206.05C207.099 244.712 208.139 244.504 209.105 244.094C210.071 243.683 210.943 243.079 211.667 242.319C212.39 241.559 212.95 240.658 213.312 239.673C213.674 238.688 213.831 237.639 213.771 236.591L204.562 45.5276C204.431 43.351 203.481 41.3047 201.903 39.7996C200.325 38.2946 198.236 37.4422 196.056 37.4137Z" fill="black"/>
<path d="M199.687 37.4136H101.393C100.344 37.4064 99.3036 37.6144 98.3376 38.0247C97.3715 38.4351 96.4997 39.039 95.7761 39.7994C95.0526 40.5597 94.4925 41.4603 94.1305 42.4455C93.7685 43.4307 93.6122 44.4796 93.6714 45.5276L102.881 236.591C103.012 238.767 103.962 240.814 105.54 242.319C107.118 243.824 109.206 244.676 111.387 244.705H209.654C210.703 244.712 211.743 244.504 212.709 244.094C213.675 243.683 214.547 243.079 215.271 242.319C215.994 241.559 216.554 240.658 216.916 239.673C217.278 238.688 217.435 237.639 217.375 236.591L208.166 45.5276C208.035 43.3556 207.089 41.3131 205.517 39.8087C203.945 38.3043 201.863 37.4489 199.687 37.4136Z" fill="#263238"/>
<path d="M111.11 239.295C110.386 239.277 109.695 238.99 109.171 238.49C108.648 237.99 108.329 237.313 108.277 236.591L99.081 45.5275C99.0645 45.1788 99.119 44.8304 99.2409 44.5032C99.3629 44.1761 99.55 43.8772 99.7908 43.6244C100.032 43.3716 100.321 43.1702 100.642 43.0325C100.963 42.8947 101.308 42.8234 101.657 42.8229H199.924C200.649 42.8381 201.341 43.1242 201.866 43.6248C202.39 44.1254 202.708 44.8042 202.757 45.5275L211.966 236.591C211.983 236.939 211.929 237.287 211.807 237.613C211.685 237.94 211.499 238.239 211.259 238.492C211.019 238.744 210.73 238.946 210.41 239.084C210.09 239.222 209.745 239.294 209.397 239.295H111.11Z" fill="#7E004E"/>
<path opacity="0.1" d="M111.063 237.943C110.701 237.931 110.357 237.786 110.095 237.537C109.834 237.288 109.672 236.951 109.643 236.591L100.433 45.5274C100.427 45.3538 100.456 45.1806 100.517 45.0181C100.579 44.8556 100.672 44.707 100.791 44.5811C100.911 44.4551 101.055 44.3543 101.214 44.2846C101.373 44.2149 101.544 44.1776 101.718 44.175H199.985C200.347 44.1856 200.692 44.3296 200.954 44.5792C201.216 44.8288 201.377 45.1665 201.405 45.5274L210.614 236.591C210.621 236.764 210.592 236.937 210.531 237.1C210.469 237.262 210.376 237.411 210.256 237.537C210.137 237.663 209.993 237.764 209.834 237.833C209.675 237.903 209.503 237.94 209.329 237.943H111.063Z" fill="black"/>
<g opacity="0.3">
<path d="M140.719 226.963H121.252C120.718 226.957 120.205 226.748 119.819 226.379C119.432 226.01 119.2 225.508 119.169 224.975L117.749 195.42C117.732 195.158 117.768 194.896 117.857 194.65C117.945 194.403 118.083 194.178 118.263 193.987C118.443 193.797 118.66 193.646 118.901 193.543C119.142 193.44 119.401 193.389 119.663 193.391H139.164C139.697 193.396 140.208 193.603 140.594 193.971C140.979 194.339 141.21 194.84 141.239 195.372L142.639 224.934C142.656 225.196 142.618 225.458 142.529 225.704C142.44 225.951 142.301 226.176 142.121 226.367C141.941 226.557 141.723 226.708 141.482 226.811C141.241 226.913 140.981 226.965 140.719 226.963ZM119.636 194.081C119.467 194.08 119.3 194.113 119.144 194.178C118.989 194.243 118.848 194.339 118.73 194.46C118.615 194.584 118.526 194.73 118.468 194.889C118.41 195.048 118.384 195.217 118.392 195.386L119.819 224.934C119.837 225.296 119.993 225.637 120.254 225.888C120.516 226.139 120.863 226.282 121.225 226.287H140.719C140.888 226.288 141.056 226.254 141.212 226.188C141.368 226.121 141.509 226.024 141.626 225.901C141.742 225.778 141.832 225.632 141.89 225.473C141.948 225.313 141.973 225.144 141.963 224.975L140.536 195.42C140.519 195.058 140.365 194.717 140.104 194.466C139.844 194.215 139.498 194.072 139.136 194.067L119.636 194.081Z" fill="#FAFAFA"/>
<path d="M138.879 200.944H120.575C120.486 200.944 120.4 200.908 120.336 200.845C120.273 200.782 120.237 200.696 120.237 200.606C120.237 200.516 120.273 200.43 120.336 200.367C120.4 200.303 120.486 200.268 120.575 200.268H138.899C138.989 200.268 139.075 200.303 139.138 200.367C139.202 200.43 139.237 200.516 139.237 200.606C139.237 200.696 139.202 200.782 139.138 200.845C139.075 200.908 138.989 200.944 138.899 200.944H138.879Z" fill="#FAFAFA"/>
<path d="M139.069 204.765H120.738C120.649 204.763 120.564 204.727 120.501 204.664C120.438 204.601 120.402 204.516 120.4 204.426C120.4 204.337 120.436 204.251 120.499 204.187C120.563 204.124 120.649 204.088 120.738 204.088H139.069C139.159 204.088 139.245 204.124 139.308 204.187C139.372 204.251 139.407 204.337 139.407 204.426C139.406 204.516 139.369 204.601 139.306 204.664C139.243 204.727 139.158 204.763 139.069 204.765Z" fill="#FAFAFA"/>
<path d="M139.251 208.585H120.92C120.831 208.583 120.746 208.547 120.683 208.484C120.62 208.421 120.584 208.336 120.582 208.247C120.582 208.157 120.618 208.071 120.681 208.008C120.744 207.944 120.83 207.909 120.92 207.909H139.251C139.341 207.909 139.427 207.944 139.49 208.008C139.553 208.071 139.589 208.157 139.589 208.247C139.589 208.337 139.553 208.423 139.49 208.486C139.427 208.549 139.341 208.585 139.251 208.585Z" fill="#FAFAFA"/>
<path d="M139.434 212.405H121.11C121.02 212.405 120.934 212.369 120.871 212.306C120.807 212.243 120.771 212.157 120.771 212.067C120.771 211.977 120.807 211.891 120.871 211.828C120.934 211.765 121.02 211.729 121.11 211.729H139.434C139.523 211.729 139.609 211.765 139.673 211.828C139.736 211.891 139.772 211.977 139.772 212.067C139.772 212.157 139.736 212.243 139.673 212.306C139.609 212.369 139.523 212.405 139.434 212.405Z" fill="#FAFAFA"/>
<path d="M139.616 216.225H121.292C121.203 216.225 121.117 216.19 121.053 216.126C120.99 216.063 120.954 215.977 120.954 215.887C120.954 215.798 120.99 215.712 121.053 215.648C121.117 215.585 121.203 215.549 121.292 215.549H139.616C139.706 215.549 139.792 215.585 139.855 215.648C139.919 215.712 139.954 215.798 139.954 215.887C139.954 215.977 139.919 216.063 139.855 216.126C139.792 216.19 139.706 216.225 139.616 216.225Z" fill="#FAFAFA"/>
<path d="M136.046 220.046H121.475C121.385 220.046 121.299 220.01 121.236 219.947C121.172 219.883 121.137 219.797 121.137 219.707C121.137 219.618 121.172 219.532 121.236 219.468C121.299 219.405 121.385 219.369 121.475 219.369H136.046C136.136 219.369 136.222 219.405 136.285 219.468C136.349 219.532 136.384 219.618 136.384 219.707C136.382 219.797 136.346 219.882 136.283 219.945C136.22 220.008 136.135 220.044 136.046 220.046Z" fill="#FAFAFA"/>
</g>
<g opacity="0.3">
<path d="M152.991 118.526L139.624 120.663C139.108 119.391 138.426 118.192 137.595 117.099C136.795 116.259 135.849 115.572 134.803 115.071L135.303 125.551C142.736 127.508 147.738 129.572 150.307 131.745C151.945 133.11 153.274 134.808 154.207 136.725C155.14 138.643 155.654 140.736 155.716 142.868C155.895 145.362 155.437 147.861 154.384 150.13C153.383 152.246 151.942 154.125 150.158 155.641C148.496 157.064 146.574 158.153 144.499 158.846C142.062 159.578 139.537 159.974 136.993 160.022L137.081 161.868C137.102 162.21 137.052 162.552 136.934 162.873C136.817 163.195 136.634 163.489 136.398 163.737C136.162 163.985 135.878 164.181 135.563 164.315C135.247 164.448 134.908 164.515 134.566 164.512C133.855 164.504 133.173 164.227 132.658 163.737C132.144 163.246 131.835 162.578 131.794 161.868L131.706 160.022C128.738 159.831 125.808 159.254 122.99 158.305C120.831 157.525 118.835 156.353 117.101 154.849C115.518 153.498 114.178 151.886 113.138 150.082C112.096 148.143 111.338 146.064 110.887 143.909L125.431 142.212C125.981 144.597 126.657 146.321 127.459 147.385C128.468 148.621 129.763 149.591 131.232 150.211L130.617 137.418C127.015 136.521 123.489 135.346 120.069 133.902C117.857 132.799 115.956 131.16 114.538 129.135C112.881 126.794 111.965 124.01 111.908 121.143C111.751 119.164 112.026 117.175 112.715 115.314C113.404 113.453 114.49 111.764 115.897 110.365C118.764 107.475 123.159 105.875 129.082 105.564L129.035 104.624C129.014 104.282 129.065 103.94 129.182 103.619C129.3 103.297 129.482 103.003 129.718 102.755C129.954 102.507 130.238 102.311 130.553 102.177C130.869 102.044 131.208 101.977 131.55 101.98C132.261 101.988 132.943 102.265 133.458 102.756C133.972 103.246 134.281 103.914 134.323 104.624L134.37 105.564C139.779 105.902 143.974 107.182 146.953 109.405C149.95 111.665 152.082 114.884 152.991 118.526ZM129.529 114.909C128.323 115.218 127.234 115.874 126.398 116.795C125.829 117.559 125.553 118.502 125.62 119.452C125.656 120.472 126.027 121.451 126.675 122.238C127.578 123.185 128.721 123.87 129.982 124.219L129.529 114.909ZM136.54 150.556C138.569 150.105 140.034 149.348 140.935 148.284C141.368 147.805 141.702 147.246 141.918 146.638C142.134 146.03 142.227 145.385 142.193 144.741C142.124 143.567 141.646 142.454 140.841 141.597C139.989 140.643 138.366 139.751 135.986 138.933L136.54 150.556Z" fill="#FAFAFA"/>
</g>
<path opacity="0.2" d="M188.328 62.3577H121.388L127.913 197.665C128.231 203.208 130.642 208.423 134.659 212.257C138.676 216.09 143.998 218.255 149.55 218.315H216.49L209.972 83.0077C209.656 77.4623 207.245 72.244 203.226 68.4099C199.208 64.5757 193.882 62.4122 188.328 62.3577Z" fill="black"/>
<path d="M204.724 62.3577H121.407C126.96 62.4155 132.283 64.5803 136.3 68.414C140.317 72.2476 142.728 77.464 143.044 83.0077L148.366 193.155C148.684 198.698 151.096 203.913 155.112 207.747C159.129 211.58 164.451 213.745 170.003 213.805H212.013C214.688 213.832 217.34 213.31 219.804 212.269C222.268 211.228 224.491 209.692 226.336 207.755C228.181 205.818 229.608 203.522 230.527 201.011C231.447 198.499 231.84 195.825 231.683 193.155L226.368 83.0077C226.053 77.4623 223.641 72.244 219.623 68.4099C215.604 64.5757 210.278 62.4122 204.724 62.3577Z" fill="#FAFAFA"/>
<path d="M189.666 193.155C189.825 195.823 189.433 198.496 188.514 201.007C187.596 203.518 186.171 205.813 184.329 207.749C182.486 209.686 180.264 211.223 177.802 212.265C175.34 213.306 172.69 213.831 170.017 213.805H253.327C256 213.831 258.651 213.306 261.113 212.265C263.575 211.223 265.797 209.686 267.641 207.75C269.484 205.813 270.91 203.518 271.829 201.007C272.748 198.497 273.14 195.824 272.983 193.155H189.666Z" fill="#E6E6E6"/>
<path d="M216.456 130.724H157.575C157.163 130.72 156.767 130.559 156.468 130.274C156.17 129.989 155.99 129.601 155.966 129.189C155.955 128.991 155.985 128.793 156.053 128.606C156.122 128.42 156.228 128.25 156.364 128.106C156.501 127.962 156.666 127.848 156.849 127.77C157.032 127.693 157.228 127.653 157.427 127.654H216.307C216.724 127.652 217.127 127.81 217.431 128.095C217.736 128.381 217.919 128.773 217.943 129.189C217.954 129.39 217.924 129.59 217.854 129.779C217.784 129.967 217.675 130.138 217.536 130.283C217.396 130.427 217.228 130.541 217.042 130.617C216.856 130.693 216.656 130.729 216.456 130.724Z" fill="#7E004E"/>
<path d="M216.916 140.305H158.035C157.623 140.301 157.227 140.14 156.928 139.855C156.63 139.57 156.45 139.182 156.426 138.77C156.415 138.572 156.445 138.374 156.513 138.188C156.582 138.001 156.688 137.831 156.824 137.687C156.961 137.543 157.126 137.429 157.309 137.351C157.491 137.274 157.688 137.234 157.887 137.236H216.774C217.185 137.242 217.579 137.403 217.876 137.688C218.174 137.973 218.352 138.359 218.376 138.77C218.387 138.969 218.358 139.167 218.289 139.353C218.221 139.54 218.115 139.71 217.978 139.854C217.841 139.997 217.676 140.112 217.493 140.189C217.311 140.267 217.114 140.307 216.916 140.305Z" fill="#7E004E"/>
<path d="M217.382 149.88H158.495C158.083 149.876 157.687 149.715 157.388 149.43C157.089 149.145 156.91 148.757 156.886 148.345C156.875 148.147 156.905 147.949 156.973 147.762C157.042 147.576 157.148 147.406 157.284 147.262C157.421 147.118 157.586 147.004 157.769 146.926C157.951 146.849 158.148 146.809 158.347 146.81H217.267C217.68 146.815 218.076 146.976 218.375 147.261C218.673 147.546 218.853 147.933 218.877 148.345C218.888 148.546 218.857 148.748 218.787 148.936C218.716 149.125 218.607 149.297 218.467 149.441C218.326 149.585 218.157 149.699 217.971 149.775C217.784 149.85 217.584 149.886 217.382 149.88Z" fill="#7E004E"/>
<path d="M217.842 159.475H158.962C158.55 159.469 158.155 159.308 157.857 159.023C157.558 158.739 157.378 158.352 157.353 157.94C157.342 157.742 157.371 157.544 157.44 157.357C157.508 157.171 157.614 157.001 157.751 156.857C157.888 156.713 158.053 156.599 158.236 156.521C158.418 156.444 158.615 156.404 158.813 156.405H217.694C218.106 156.41 218.502 156.571 218.801 156.856C219.099 157.141 219.279 157.528 219.303 157.94C219.314 158.138 219.284 158.337 219.216 158.523C219.147 158.709 219.041 158.88 218.905 159.024C218.768 159.167 218.603 159.282 218.42 159.359C218.238 159.437 218.041 159.476 217.842 159.475Z" fill="#7E004E"/>
<path d="M194.893 169.056H159.421C159.008 169.052 158.613 168.891 158.314 168.606C158.015 168.321 157.836 167.933 157.812 167.521C157.801 167.323 157.83 167.125 157.899 166.938C157.967 166.752 158.073 166.582 158.21 166.438C158.347 166.294 158.512 166.18 158.695 166.102C158.877 166.025 159.074 165.985 159.272 165.986H194.744C195.157 165.991 195.552 166.152 195.851 166.437C196.15 166.722 196.329 167.109 196.353 167.521C196.364 167.719 196.335 167.918 196.266 168.104C196.198 168.29 196.092 168.461 195.955 168.605C195.818 168.748 195.653 168.863 195.47 168.94C195.288 169.018 195.091 169.057 194.893 169.056Z" fill="#7E004E"/>
<path d="M198.984 110.864C205.952 103.726 205.528 92.0129 198.038 84.701C190.548 77.3891 178.828 77.2477 171.86 84.3851C164.892 91.5225 165.316 103.236 172.806 110.548C180.296 117.86 192.017 118.001 198.984 110.864Z" fill="#7E004E"/>
<path d="M200.688 97.6127C200.816 100.125 200.301 102.629 199.193 104.888C197.992 107.31 196.133 109.345 193.828 110.759C191.524 112.172 188.867 112.908 186.164 112.88C183.367 112.859 180.624 112.112 178.203 110.71C175.783 109.309 173.768 107.303 172.357 104.888C171.04 102.679 170.285 100.181 170.159 97.6127C170.042 95.6394 170.332 93.6632 171.011 91.8068C171.691 89.9504 172.744 88.2536 174.107 86.8217C175.47 85.3898 177.113 84.2535 178.933 83.4833C180.754 82.7132 182.713 82.3257 184.69 82.3449C188.793 82.3959 192.724 83.9991 195.692 86.8319C198.66 89.6647 200.445 93.5167 200.688 97.6127Z" fill="white"/>
<path opacity="0.4" d="M199.193 104.888C197.992 107.31 196.133 109.345 193.828 110.759C191.524 112.172 188.867 112.908 186.164 112.88C183.367 112.859 180.624 112.112 178.203 110.71C175.782 109.309 173.768 107.303 172.356 104.888C176.248 102.218 180.863 100.802 185.582 100.831C190.416 100.84 195.143 102.249 199.193 104.888Z" fill="#7E004E"/>
<path opacity="0.4" d="M190.148 97.2455C192.71 94.6214 192.555 90.3161 189.803 87.6292C187.051 84.9424 182.743 84.8915 180.181 87.5156C177.62 90.1397 177.774 94.445 180.527 97.1319C183.279 99.8187 187.587 99.8696 190.148 97.2455Z" fill="#7E004E"/>
<path d="M242.124 239.634H237.161L236.66 228.126H241.63L242.124 239.634Z" fill="#B55B52"/>
<path opacity="0.2" d="M236.667 228.132L236.917 234.062H241.887L241.63 228.132H236.667Z" fill="black"/>
<path d="M284.404 226.152L279.685 227.693L273.741 217.531L278.468 215.989L284.404 226.152Z" fill="#B55B52"/>
<path opacity="0.2" d="M278.468 215.989L273.741 217.531L276.811 222.771L281.531 221.229L278.468 215.989Z" fill="black"/>
<path d="M258.92 73.4201C259.535 74.1706 260.056 74.84 260.59 75.5771C261.124 76.3141 261.631 77.0173 262.138 77.7476C263.139 79.2148 264.099 80.7159 264.999 82.2643C266.87 85.4058 268.396 88.7407 269.549 92.2107L269.664 92.5487L269.718 92.7245L269.793 93.0018L269.928 93.5562L270.002 94.0633C270.082 94.6706 270.107 95.284 270.077 95.8958C270.014 96.9274 269.864 97.952 269.63 98.9588C269.202 100.763 268.635 102.53 267.933 104.246C266.596 107.536 264.976 110.703 263.092 113.713L259.711 112.097C260.725 108.925 261.74 105.68 262.483 102.522C262.871 101 263.164 99.4554 263.362 97.8972C263.446 97.2244 263.471 96.5457 263.437 95.8687C263.427 95.6274 263.395 95.3876 263.342 95.152L263.308 95.0303C263.296 95.0084 263.284 94.9858 263.274 94.9626L263.22 94.8342L263.112 94.5705L262.659 93.5089L262.152 92.4541C261.814 91.7779 261.442 91.0477 261.07 90.3445C260.299 88.9516 259.468 87.5654 258.602 86.1861C257.737 84.8067 256.817 83.4814 255.898 82.1291C254.978 80.7768 253.97 79.4244 253.058 78.2006L258.92 73.4201Z" fill="#B55B52"/>
<path d="M260.022 111.258L258.081 115.552H263.632C263.632 115.552 264.518 112.293 262.503 110.974L260.022 111.258Z" fill="#B55B52"/>
<path d="M258.73 120.379L263.883 119.385L263.632 115.551H258.081L258.73 120.379Z" fill="#B55B52"/>
<path d="M234.321 51.6271C234.321 52.0328 234.111 52.3573 233.847 52.3573C233.584 52.3573 233.374 52.0328 233.374 51.6271C233.374 51.2214 233.59 50.9036 233.847 50.9036C234.104 50.9036 234.321 51.2281 234.321 51.6271Z" fill="#263238"/>
<path d="M234.172 52.3575C233.696 53.5809 233.052 54.7324 232.259 55.7789C232.532 55.9749 232.845 56.109 233.175 56.1721C233.506 56.2351 233.846 56.2255 234.172 56.144V52.3575Z" fill="#A02724"/>
<path d="M235.741 49.4097C235.692 49.4103 235.644 49.3935 235.606 49.3624C235.37 49.1852 235.097 49.0654 234.807 49.0125C234.517 48.9597 234.218 48.9753 233.936 49.0581C233.879 49.0735 233.819 49.0674 233.766 49.0409C233.714 49.0144 233.674 48.9694 233.652 48.9147C233.631 48.86 233.631 48.7994 233.653 48.7447C233.674 48.69 233.714 48.6451 233.767 48.6186C234.123 48.5055 234.501 48.4796 234.869 48.5431C235.238 48.6067 235.585 48.7578 235.883 48.9837C235.933 49.0214 235.966 49.0769 235.976 49.1386C235.986 49.2002 235.972 49.2634 235.937 49.315C235.914 49.3446 235.884 49.3684 235.85 49.3848C235.816 49.4012 235.779 49.4097 235.741 49.4097Z" fill="#263238"/>
<path d="M247.255 56.2452C246.539 59.883 245.829 66.5432 248.371 68.9639C248.371 68.9639 247.377 72.6489 240.629 72.6489C233.191 72.6489 237.079 68.9639 237.079 68.9639C241.136 67.9969 241.028 64.9948 240.318 62.1684L247.255 56.2452Z" fill="#B55B52"/>
<path d="M249.345 70.2287C249.879 69.0657 250.468 67.7269 249.25 67.3077C247.898 66.8479 240.623 66.3814 238.101 67.2469C237.769 67.3387 237.459 67.4957 237.188 67.7085C236.918 67.9213 236.692 68.1858 236.525 68.4865C236.358 68.7873 236.252 69.1183 236.213 69.4603C236.175 69.8024 236.205 70.1486 236.302 70.4789L249.345 70.2287Z" fill="#263238"/>
<path d="M278.663 228.876C278.298 229.228 277.886 229.512 277.575 229.464C277.477 229.445 277.387 229.395 277.318 229.322C277.249 229.25 277.204 229.158 277.189 229.059C277.169 228.982 277.165 228.901 277.179 228.823C277.193 228.745 277.225 228.671 277.271 228.606C277.676 227.977 279.299 227.706 279.387 227.7C279.409 227.696 279.431 227.699 279.451 227.708C279.471 227.716 279.489 227.729 279.502 227.747C279.515 227.766 279.521 227.788 279.521 227.811C279.521 227.834 279.515 227.856 279.502 227.875C279.258 228.237 278.977 228.573 278.663 228.876ZM277.561 228.619C277.526 228.652 277.494 228.688 277.467 228.727C277.439 228.766 277.421 228.811 277.413 228.857C277.405 228.904 277.407 228.952 277.419 228.998C277.473 229.208 277.575 229.228 277.609 229.228C277.953 229.282 278.69 228.552 279.144 227.984C278.576 228.076 278.035 228.293 277.561 228.619Z" fill="#7E004E"/>
<path d="M279.475 227.896L279.421 227.929C278.86 228.078 277.392 227.983 277.081 227.51C277.035 227.435 277.015 227.346 277.025 227.257C277.035 227.169 277.074 227.087 277.135 227.023C277.194 226.955 277.265 226.899 277.345 226.858C277.425 226.817 277.512 226.793 277.602 226.787C278.346 226.733 279.421 227.686 279.468 227.727C279.485 227.74 279.496 227.758 279.502 227.779C279.509 227.799 279.508 227.821 279.502 227.841C279.5 227.862 279.491 227.882 279.475 227.896ZM277.359 227.138L277.318 227.179C277.223 227.294 277.264 227.355 277.277 227.382C277.46 227.659 278.488 227.814 279.123 227.74C278.703 227.36 278.182 227.111 277.622 227.023C277.528 227.031 277.439 227.071 277.372 227.138H277.359Z" fill="#7E004E"/>
<path d="M235.159 239.885C234.524 239.885 233.908 239.797 233.706 239.513C233.651 239.438 233.621 239.348 233.621 239.256C233.621 239.163 233.651 239.073 233.706 238.999C233.746 238.93 233.799 238.87 233.863 238.822C233.927 238.774 234 238.74 234.078 238.722C234.902 238.498 236.64 239.486 236.715 239.533C236.736 239.544 236.753 239.563 236.763 239.585C236.772 239.607 236.775 239.631 236.769 239.655C236.765 239.677 236.755 239.699 236.739 239.716C236.724 239.732 236.703 239.744 236.681 239.749C236.178 239.837 235.669 239.882 235.159 239.885ZM234.375 238.924C234.299 238.914 234.221 238.914 234.145 238.924C234.098 238.934 234.053 238.953 234.013 238.981C233.973 239.009 233.94 239.045 233.915 239.087C233.834 239.235 233.861 239.31 233.915 239.35C234.145 239.668 235.403 239.675 236.322 239.547C235.72 239.214 235.058 239.003 234.375 238.924Z" fill="#7E004E"/>
<path d="M236.66 239.749H236.613C236.018 239.479 234.828 238.397 234.916 237.842C234.916 237.707 235.031 237.545 235.355 237.511C235.476 237.498 235.598 237.509 235.714 237.543C235.83 237.578 235.938 237.636 236.031 237.714C236.66 238.235 236.795 239.573 236.802 239.628C236.802 239.648 236.797 239.669 236.787 239.688C236.778 239.706 236.765 239.723 236.748 239.736C236.735 239.744 236.721 239.749 236.706 239.751C236.69 239.754 236.675 239.753 236.66 239.749ZM235.45 237.721H235.382C235.166 237.721 235.152 237.822 235.152 237.849C235.098 238.187 235.903 239.032 236.505 239.398C236.446 238.83 236.21 238.295 235.829 237.869C235.721 237.784 235.588 237.736 235.45 237.734V237.721Z" fill="#7E004E"/>
<path d="M279.272 227.145L283.329 223.284C283.4 223.215 283.492 223.172 283.591 223.163C283.69 223.155 283.789 223.181 283.87 223.237L287.63 225.752C287.721 225.814 287.796 225.895 287.851 225.99C287.906 226.085 287.939 226.191 287.947 226.301C287.954 226.41 287.937 226.52 287.896 226.622C287.856 226.723 287.792 226.815 287.711 226.888C286.284 228.241 285.52 228.788 283.748 230.479C282.653 231.527 279.394 235.077 277.886 236.524C276.378 237.971 274.755 236.659 275.242 235.935C277.433 232.683 278.799 229.566 278.921 227.923C278.943 227.63 279.067 227.355 279.272 227.145Z" fill="#263238"/>
<path d="M237.188 239.059H242.597C242.695 239.059 242.79 239.092 242.867 239.154C242.943 239.215 242.996 239.301 243.016 239.397L243.997 243.813C244.021 243.919 244.021 244.029 243.997 244.135C243.973 244.242 243.924 244.341 243.856 244.425C243.788 244.51 243.701 244.578 243.602 244.624C243.503 244.671 243.396 244.694 243.287 244.692C241.326 244.692 238.499 244.55 236.038 244.55C233.164 244.55 230.683 244.705 227.309 244.705C225.28 244.705 224.706 242.643 225.558 242.454C229.439 241.608 232.617 241.514 235.971 239.445C236.332 239.205 236.754 239.072 237.188 239.059Z" fill="#263238"/>
<path d="M230.115 80.2357C228.141 83.1432 226.105 85.8614 223.915 88.5458C221.715 91.2629 219.365 93.8544 216.876 96.3081L215.916 97.2412L215.672 97.4711L215.496 97.6334L215.239 97.816C214.921 98.0727 214.579 98.2991 214.218 98.4921C213.077 99.0943 211.821 99.4469 210.533 99.5267C208.568 99.6429 206.597 99.479 204.678 99.0398C201.201 98.2729 197.829 97.0878 194.637 95.5102L195.881 91.9942C199.047 92.6272 202.249 93.0652 205.469 93.306C206.884 93.4178 208.307 93.3587 209.708 93.1302C210.111 93.07 210.495 92.9197 210.831 92.6907C210.865 92.6907 210.831 92.6501 210.831 92.6501L210.885 92.596L211.081 92.3729L211.886 91.4938C213.995 89.0867 216.044 86.5173 218.032 83.8938C220.02 81.2703 222.015 78.5791 223.915 75.9556L230.115 80.2357Z" fill="#B55B52"/>
<path d="M257.269 70.0931C261.921 71.1614 267.263 83.853 267.263 83.853L257.912 90.263C255.589 86.9256 253.529 83.4124 251.752 79.7555C248.98 73.9472 252.509 68.9977 257.269 70.0931Z" fill="#7E004E"/>
<path opacity="0.3" d="M253.93 78.2067L258.352 89.9787L257.912 90.283C257.912 90.283 255.999 87.5783 253.93 83.9744V78.2067Z" fill="black"/>
<path d="M229.439 70.343C229.439 70.343 224.151 76.3135 229.148 113.279H255.714C255.897 109.222 253.334 89.3026 257.269 70.086C254.331 69.5208 251.358 69.1459 248.371 68.9636C244.61 68.7471 240.84 68.7471 237.079 68.9636C234.5 69.2234 231.946 69.6846 229.439 70.343Z" fill="#7E004E"/>
<path opacity="0.3" d="M232.387 81.0334C231.695 85.2282 229.882 89.158 227.14 92.4064C227.032 90.0264 226.991 87.8897 226.998 85.9761L232.387 81.0334Z" fill="black"/>
<path d="M234.679 74.3731C235.355 79.0724 226.065 91.0878 226.065 91.0878L216.754 84.6778C216.754 84.6778 219.337 78.0581 223.685 73.7172C228.654 68.7406 233.969 69.2545 234.679 74.3731Z" fill="#7E004E"/>
<path d="M196.524 92.4067L192.879 88.6405L188.991 93.6509C188.991 93.6509 191.953 96.511 195.476 95.6794L196.524 92.4067Z" fill="#B55B52"/>
<path d="M187.875 86.5439L186.205 91.8044L188.991 93.6301L192.879 88.6197L187.875 86.5439Z" fill="#B55B52"/>
<path d="M247.695 50.7825C247.391 55.6982 247.465 58.5989 244.99 61.121C241.251 64.921 235.179 62.6694 234.01 57.7402C232.948 53.3181 233.624 46.0155 238.438 44.0614C239.499 43.6257 240.653 43.4684 241.791 43.6046C242.93 43.7408 244.014 44.1658 244.942 44.8394C245.87 45.513 246.61 46.4126 247.091 47.4529C247.573 48.4931 247.781 49.6393 247.695 50.7825Z" fill="#B55B52"/>
<path d="M251.976 40.511C253.49 41.9039 252.848 43.459 252.057 43.7498C254.511 44.2569 254.87 46.211 253.578 50.3356C252.348 54.2844 249.366 59.5788 245.64 59.9033C240.041 60.3902 238.405 54.5549 238.365 48.7669C235.2 48.963 236.566 46.1569 232.678 46.8061C229.297 47.3673 230.568 44.7302 227.695 43.5808C224.361 42.2284 225.031 37.1234 228.141 38.5907C228.141 38.5907 226.701 39.5373 228.378 40.4298C230.054 41.3224 229.892 39.2601 233.212 39.0099C236.532 38.7597 236.918 41.5996 240.799 39.8889C245.667 37.7387 248.865 37.6373 251.976 40.511Z" fill="#263238"/>
<path d="M250.109 43.7227C250.33 43.3687 250.659 43.0952 251.048 42.943C251.436 42.7907 251.864 42.7678 252.266 42.8775C253.788 43.2021 253.909 43.8715 254.863 43.7836C255.816 43.6957 255.471 44.7099 255.471 44.7099C255.471 44.7099 255.214 43.9459 254.065 44.3719C252.915 44.7978 252.165 43.7565 251.671 44.2231C251.178 44.6897 250.109 43.7227 250.109 43.7227Z" fill="#263238"/>
<path d="M241.014 52.1207C240.798 53.3262 240.187 54.4253 239.277 55.2446C238.073 56.313 237.032 55.4542 236.991 53.9937C236.991 52.6752 237.552 50.525 238.939 50.0111C240.325 49.4972 241.265 50.6602 241.014 52.1207Z" fill="#B55B52"/>
<path d="M238.567 113.28C238.567 113.28 244.207 151.233 247.303 165.432C250.684 180.984 274.248 222.365 274.248 222.365L282.903 219.552C282.903 219.552 264.14 182.268 262.206 166.845C260.103 150.11 255.715 113.253 255.715 113.253L238.567 113.28Z" fill="#263238"/>
<path d="M271.828 219.661C271.794 219.661 273.809 222.69 273.809 222.69L283.532 219.525L282.389 216.618L271.828 219.661Z" fill="#7E004E"/>
<path opacity="0.3" d="M242.13 126.802C248.649 128.08 247.959 152.388 247.175 164.891C245.295 156.053 242.543 139.048 240.663 126.978C241.118 126.754 241.636 126.692 242.13 126.802Z" fill="black"/>
<path d="M229.148 113.28C229.148 113.28 228.472 150.421 228.999 165.567C229.56 181.322 235.085 232.913 235.085 232.913H243.503C243.503 232.913 243.807 182.242 244.179 166.771C244.585 149.867 246.62 113.28 246.62 113.28H229.148Z" fill="#263238"/>
<path d="M233.449 229.559C233.408 229.559 233.922 233.055 233.922 233.055H244.159L244.436 229.938L233.449 229.559Z" fill="#7E004E"/>
</svg>
